<svg xmlns="http://www.w3.org/2000/svg" width="865.76" height="682.89" viewBox="0 0 865.76 682.89"><ellipse cx="467.8" cy="591.37" rx="278.44" ry="41.9" transform="translate(-12.42 10.04) rotate(-1.21)" fill="#f7cf5f"/><ellipse cx="467.8" cy="591.37" rx="278.44" ry="41.9" transform="translate(-12.42 10.04) rotate(-1.21)" fill="#fff" opacity="0.7"/><path d="M776.69,423.64s87.78-82.83,39.55-192.83a189.15,189.15,0,0,0-62-76.45C693.86,110.29,541.11,23.09,311.35,56.77a171.46,171.46,0,0,0-69.2,26c-33.73,22.12-69.47,62.77-54.27,132.39,5.38,24.61,4.17,50.28-4.69,73.87-8.78,23.37-25.4,52-56.36,82.94,0,0-65.95,63.71-1.79,118.85a117.08,117.08,0,0,0,47.39,24.38C252.43,535.68,575.92,603.67,776.69,423.64Z" fill="#f7cf5f"/><path d="M776.69,423.64s87.78-82.83,39.55-192.83a189.15,189.15,0,0,0-62-76.45C693.86,110.29,541.11,23.09,311.35,56.77a171.46,171.46,0,0,0-69.2,26c-33.73,22.12-69.47,62.77-54.27,132.39,5.38,24.61,4.17,50.28-4.69,73.87-8.78,23.37-25.4,52-56.36,82.94,0,0-65.95,63.71-1.79,118.85a117.08,117.08,0,0,0,47.39,24.38C252.43,535.68,575.92,603.67,776.69,423.64Z" fill="#fff" opacity="0.7"/><path d="M778.08,203.87v45.49l-10.42-13.61H683.6a6.32,6.32,0,0,1-6.32-6.32V203.87a6.32,6.32,0,0,1,6.32-6.32h88.16A6.32,6.32,0,0,1,778.08,203.87Z" fill="#f7cf5f"/><path d="M338,505l-9.21,38.44s-10.83,37.38,23.59,46a48.76,48.76,0,0,0,11.91,1.42h28.14v8.37H362.81a47.6,47.6,0,0,1-27-8.26c-11.41-7.85-22.18-22.73-14.82-50.28L328.55,505Z" fill="#f7cf5f"/><path d="M338,505l-9.21,38.44s-10.83,37.38,23.59,46a48.76,48.76,0,0,0,11.91,1.42h28.14v8.37H362.81a47.6,47.6,0,0,1-27-8.26c-11.41-7.85-22.18-22.73-14.82-50.28L328.55,505Z" opacity="0.2"/><path d="M440.15,552.13c-1-16.41,9.74-47.11,9.74-47.11H408.24a20.23,20.23,0,0,1,3.68,13.35c-.69,12-8.64,21.18-20.14,21.18S371,530,371,518.14A21.71,21.71,0,0,1,375.32,505H338l-9.21,38.44c-10.12,49.48,35.5,47.41,35.5,47.41H479.2C441.31,585.11,440.15,552.13,440.15,552.13Z" fill="#f7cf5f"/><path d="M402.48,504.91s9,23.18-15.87,34c0,0,14.55,4,22.47-9.2A23.14,23.14,0,0,0,412,512.8a17.61,17.61,0,0,0-3.8-7.89Z" fill="#f7cf5f"/><path d="M402.48,504.91s9,23.18-15.87,34c0,0,14.55,4,22.47-9.2A23.14,23.14,0,0,0,412,512.8a17.61,17.61,0,0,0-3.8-7.89Z" opacity="0.2"/><rect x="388.21" y="590.87" width="118.76" height="8.29" fill="#f7cf5f"/><rect x="388.21" y="590.87" width="118.76" height="8.29" opacity="0.3"/><polygon points="676.59 461.53 700.72 604.22 705.06 604.22 686.94 459.22 676.59 461.53" fill="#463548"/><polygon points="676.59 461.53 700.72 604.22 705.06 604.22 686.94 459.22 676.59 461.53" opacity="0.2"/><polygon points="612.37 571.3 612.37 582.74 634.93 582.74 634.93 569.42 612.37 571.3" fill="#f5b6b4"/><path d="M583.61,603.53h50.45a2.87,2.87,0,0,0,2.86-2.8c.11-5.19.09-16.16-2-19.88H612.37S577.16,593.4,583.61,603.53Z" fill="#5c75c9"/><polygon points="536.89 566.24 536.89 582.74 559.44 582.74 559.44 564.4 536.89 566.24" fill="#f5b6b4"/><path d="M508.12,603.53h50.45a2.87,2.87,0,0,0,2.86-2.8c.11-5.19.09-16.16-2-19.88H536.89S501.67,593.4,508.12,603.53Z" fill="#5c75c9"/><polygon points="686.71 320.45 653.8 320.45 653.8 448.87 689.43 448.87 686.71 320.45" fill="#463548"/><polygon points="686.71 320.45 653.8 320.45 653.8 448.87 689.43 448.87 686.71 320.45" opacity="0.2"/><path d="M621,202.59V483.41a21.5,21.5,0,0,1-21.5,21.5H163.57a21.51,21.51,0,0,1-21.5-21.5V202.59a21.5,21.5,0,0,1,19.27-21.38,20.55,20.55,0,0,1,2.23-.12H599.5A21.5,21.5,0,0,1,621,202.59Z" fill="#f7cf5f"/><path d="M590.35,504.91c-.74.07-1.49.11-2.24.11H152.18a21.49,21.49,0,0,1-21.5-21.5V202.71a21.49,21.49,0,0,1,21.5-21.5h9.16a21.5,21.5,0,0,0-19.27,21.38V483.41a21.51,21.51,0,0,0,21.5,21.5Z" fill="#f7cf5f"/><path d="M590.35,504.91c-.74.07-1.49.11-2.24.11H152.18a21.49,21.49,0,0,1-21.5-21.5V202.71a21.49,21.49,0,0,1,21.5-21.5h9.16a21.5,21.5,0,0,0-19.27,21.38V483.41a21.51,21.51,0,0,0,21.5,21.5Z" opacity="0.2"/><rect x="156.22" y="194.33" width="449.25" height="277.56" rx="18.71" fill="#ebebeb"/><path d="M605.47,213v12.6H156.22V213a18.71,18.71,0,0,1,18.71-18.7H586.76A18.71,18.71,0,0,1,605.47,213Z" fill="#5c75c9"/><path d="M605.47,213V453.18a18.71,18.71,0,0,1-18.71,18.7h-6.37c12.2-5.75,13.34-15.65,13.34-15.65V220.44a18.52,18.52,0,0,0-18.52-18.52H180.62c-22.56-1.15-24.4,15.79-24.4,15.79V213a18.71,18.71,0,0,1,18.71-18.7H586.76A18.71,18.71,0,0,1,605.47,213Z" opacity="0.2"/><circle cx="178.43" cy="213.08" r="4.72" fill="#fff"/><circle cx="194.54" cy="213.08" r="4.72" fill="#fff"/><circle cx="211.34" cy="213.08" r="4.72" fill="#fff"/><rect x="199.26" y="252.78" width="60.76" height="13.81" fill="#e35c5c"/><rect x="274.98" y="252.78" width="208.28" height="13.81" fill="#47ae8c"/><rect x="199.26" y="283.85" width="94.36" height="13.81" fill="#47ae8c"/><rect x="199.26" y="355.89" width="214.04" height="13.81" fill="#5c75c9"/><rect x="199.26" y="379.13" width="49.25" height="13.81" fill="#47ae8c"/><rect x="199.26" y="403.3" width="93.21" height="13.81" fill="#e35c5c"/><rect x="199.26" y="426.77" width="49.25" height="13.81" fill="#5c75c9"/><rect x="264.85" y="426.77" width="206.44" height="13.81" fill="#e35c5c"/><rect x="308.81" y="403.3" width="58" height="13.81" fill="#e35c5c"/><rect x="381.54" y="403.3" width="157.65" height="13.81" fill="#47ae8c"/><rect x="264.85" y="379.13" width="164.32" height="13.81" fill="#47ae8c"/><rect x="446.9" y="379.13" width="92.29" height="13.81" fill="#e35c5c"/><rect x="199.26" y="308.94" width="49.25" height="13.81" fill="#e35c5c"/><rect x="264.85" y="308.94" width="49.25" height="13.81" fill="#5c75c9"/><rect x="429.18" y="355.89" width="66.97" height="13.81" fill="#e35c5c"/><rect x="264.85" y="331.49" width="148.44" height="13.81" fill="#e35c5c"/><rect x="429.18" y="331.49" width="148.44" height="13.81" fill="#47ae8c"/><rect x="331.6" y="308.94" width="207.59" height="13.81" fill="#47ae8c"/><rect x="307.43" y="283.85" width="121.75" height="13.81" fill="#5c75c9"/><circle cx="392.47" cy="489.03" r="10.01" opacity="0.2"/><circle cx="392.47" cy="489.03" r="7.71" fill="#f7cf5f"/><path d="M358.37,460.6h-109a11.2,11.2,0,0,0-11.2,11.21v54.62l13.44-17.49H358.37a11.21,11.21,0,0,0,11.2-11.21V471.81A11.21,11.21,0,0,0,358.37,460.6Z" fill="#e35c5c"/><path d="M266,483.62a4.84,4.84,0,0,1-2.09,2,7.48,7.48,0,0,1-3.58.76h-2.94v6.74h-3.52V475.54h6.46a7.81,7.81,0,0,1,3.47.71,4.89,4.89,0,0,1,2.15,1.93,5.67,5.67,0,0,1,.05,5.44Zm-3.66-.77A2.45,2.45,0,0,0,263,481c0-1.71-1-2.57-2.87-2.57h-2.79v5.11h2.79A3.07,3.07,0,0,0,262.32,482.85Z" fill="#fff"/><path d="M279.8,479.66a4.78,4.78,0,0,1,1.92,2,6.91,6.91,0,0,1,.7,3.23v8.18H278.9v-7.7a3.62,3.62,0,0,0-.83-2.55,2.94,2.94,0,0,0-2.27-.89,3,3,0,0,0-2.3.89,3.58,3.58,0,0,0-.84,2.55v7.7h-3.52V474.49h3.52v6.41a4.53,4.53,0,0,1,1.81-1.42A6,6,0,0,1,277,479,5.57,5.57,0,0,1,279.8,479.66Z" fill="#fff"/><path d="M299.09,479.16l-8.63,20.53h-3.74l3-6.94-5.58-13.59h4l3.6,9.74,3.64-9.74Z" fill="#fff"/><path d="M305.08,482.06v6.74a1.32,1.32,0,0,0,.34,1,1.64,1.64,0,0,0,1.14.31h1.63v3H306q-4.46,0-4.45-4.33v-6.71h-1.66v-2.9h1.66v-3.44h3.55v3.44h3.11v2.9Z" fill="#fff"/><path d="M321.4,479.66a4.78,4.78,0,0,1,1.92,2,7,7,0,0,1,.69,3.23v8.18h-3.52v-7.7a3.58,3.58,0,0,0-.83-2.55,2.92,2.92,0,0,0-2.26-.89,3,3,0,0,0-2.3.89,3.58,3.58,0,0,0-.84,2.55v7.7h-3.53V474.49h3.53v6.41a4.53,4.53,0,0,1,1.81-1.42,6,6,0,0,1,2.51-.52A5.57,5.57,0,0,1,321.4,479.66Z" fill="#fff"/><path d="M329.92,492.43a6.39,6.39,0,0,1-2.52-2.53,8.11,8.11,0,0,1,0-7.54,6.6,6.6,0,0,1,2.58-2.53,7.91,7.91,0,0,1,7.29,0,6.6,6.6,0,0,1,2.58,2.53,7.4,7.4,0,0,1,.94,3.77,7.29,7.29,0,0,1-1,3.77,6.7,6.7,0,0,1-2.62,2.53,7.56,7.56,0,0,1-3.68.89A7.31,7.31,0,0,1,329.92,492.43Zm5.42-2.64a3.38,3.38,0,0,0,1.35-1.4,4.75,4.75,0,0,0,.5-2.26,4.21,4.21,0,0,0-1-3.05A3.41,3.41,0,0,0,333.6,482a3.33,3.33,0,0,0-2.53,1.07,4.24,4.24,0,0,0-1,3.05,4.35,4.35,0,0,0,1,3.06,3.29,3.29,0,0,0,2.51,1.07A3.65,3.65,0,0,0,335.34,489.79Z" fill="#fff"/><path d="M355.15,480.54a6,6,0,0,1,1.53,4.38v8.18h-3.52v-7.7a3.58,3.58,0,0,0-.83-2.55,2.92,2.92,0,0,0-2.26-.89,3,3,0,0,0-2.3.89,3.58,3.58,0,0,0-.85,2.55v7.7H343.4V479.16h3.52v1.74a4.87,4.87,0,0,1,1.8-1.42,5.62,5.62,0,0,1,2.4-.52A5.38,5.38,0,0,1,355.15,480.54Z" fill="#fff"/><path d="M695.93,221.11h-.13l-6.37-4.52v-1.31l6.5-4.53v2.65l-3.77,2.53,3.77,2.54Z" fill="#fff"/><path d="M699.29,213.74a5.6,5.6,0,0,1,2.18-2.24,6.26,6.26,0,0,1,3.18-.8,6.1,6.1,0,0,1,3.82,1.16,5.6,5.6,0,0,1,2,3.24h-3.38a2.48,2.48,0,0,0-.91-1.27,2.68,2.68,0,0,0-1.58-.46,2.58,2.58,0,0,0-2.13,1,5.22,5.22,0,0,0,0,5.52,2.58,2.58,0,0,0,2.13,1,2.39,2.39,0,0,0,2.49-1.7h3.38a5.68,5.68,0,0,1-2,3.2,5.94,5.94,0,0,1-3.81,1.19,6.25,6.25,0,0,1-3.18-.79,5.56,5.56,0,0,1-2.18-2.25,7.69,7.69,0,0,1,0-6.75Z" fill="#fff"/><path d="M716,222.74a5.71,5.71,0,0,1-2.26-2.26,6.79,6.79,0,0,1-.81-3.36,6.66,6.66,0,0,1,.84-3.37,5.79,5.79,0,0,1,2.3-2.25,7,7,0,0,1,6.5,0,5.85,5.85,0,0,1,2.3,2.25,6.66,6.66,0,0,1,.84,3.37,6.51,6.51,0,0,1-.86,3.36,6,6,0,0,1-2.34,2.26,6.77,6.77,0,0,1-3.28.79A6.55,6.55,0,0,1,716,222.74Zm4.83-2.36a3,3,0,0,0,1.2-1.24,4.22,4.22,0,0,0,.45-2,3.76,3.76,0,0,0-.93-2.73,3.08,3.08,0,0,0-2.28-.95,3,3,0,0,0-2.25.95,3.8,3.8,0,0,0-.91,2.73,3.84,3.84,0,0,0,.89,2.72,2.9,2.9,0,0,0,2.23,1A3.21,3.21,0,0,0,720.83,220.38Z" fill="#fff"/><path d="M728.86,213.73a5.43,5.43,0,0,1,4.95-3,5.35,5.35,0,0,1,2.31.53,4.7,4.7,0,0,1,1.75,1.4v-5.9h3.18v16.6h-3.18v-1.84a4.21,4.21,0,0,1-1.64,1.48,5.06,5.06,0,0,1-2.45.56,5.42,5.42,0,0,1-2.87-.8,5.68,5.68,0,0,1-2-2.28,7.35,7.35,0,0,1-.75-3.38A7.21,7.21,0,0,1,728.86,213.73Zm8.58,1.43a3.13,3.13,0,0,0-1.21-1.26,3.28,3.28,0,0,0-1.64-.44,3.21,3.21,0,0,0-1.61.43,3.12,3.12,0,0,0-1.2,1.24,3.89,3.89,0,0,0-.46,1.94,4,4,0,0,0,.46,2,3.28,3.28,0,0,0,1.21,1.29,3,3,0,0,0,1.6.44,3.27,3.27,0,0,0,1.64-.43,3.13,3.13,0,0,0,1.21-1.26,4.49,4.49,0,0,0,0-3.92Z" fill="#fff"/><path d="M756.48,218.06H747.4a3.08,3.08,0,0,0,.94,2.11,2.88,2.88,0,0,0,2,.76,2.56,2.56,0,0,0,2.49-1.5h3.39a5.65,5.65,0,0,1-2.07,2.95,6,6,0,0,1-3.74,1.15,6.48,6.48,0,0,1-3.22-.79,5.55,5.55,0,0,1-2.22-2.26,7.56,7.56,0,0,1,0-6.75,5.4,5.4,0,0,1,2.2-2.24,6.6,6.6,0,0,1,3.25-.79,6.5,6.5,0,0,1,3.17.77,5.4,5.4,0,0,1,2.18,2.16,6.64,6.64,0,0,1,.77,3.22A7.37,7.37,0,0,1,756.48,218.06ZM753.32,216a2.52,2.52,0,0,0-.88-1.94,3.1,3.1,0,0,0-2.08-.73,2.85,2.85,0,0,0-2,.71,3.08,3.08,0,0,0-1,2Z" fill="#fff"/><path d="M765.68,216.59l-6.38,4.52h-.15v-2.64l3.79-2.54-3.79-2.53v-2.65h.15l6.38,4.53Z" fill="#fff"/><rect x="23.89" y="320.22" width="163.63" height="106.56" rx="9.8" fill="#47ae8c"/><path d="M187.52,330v6.08H23.89V330a9.8,9.8,0,0,1,9.8-9.8h144A9.79,9.79,0,0,1,187.52,330Z" opacity="0.2"/><circle cx="32.06" cy="328.85" r="3.34" fill="#fff"/><circle cx="43.8" cy="328.85" r="3.34" fill="#fff"/><circle cx="55.99" cy="328.85" r="3.34" fill="#fff"/><rect x="261.17" y="154.05" width="60.99" height="63.29" rx="10.76" fill="#e35c5c"/><rect x="444.6" y="149.22" width="108.17" height="70.42" rx="3.66" fill="#47ae8c"/><path d="M552.77,152.87v5.78H444.6v-5.78a3.64,3.64,0,0,1,3.65-3.65H549.11A3.65,3.65,0,0,1,552.77,152.87Z" opacity="0.2"/><circle cx="449.2" cy="154.05" r="2.3" fill="#fff"/><circle cx="456.33" cy="154.05" r="2.3" fill="#fff"/><circle cx="463.7" cy="154.05" r="2.3" fill="#fff"/><path d="M440.22,407.21,424.8,598.92h4.38c1.61,0,26-191.71,26-191.71Z" fill="#463548"/><polygon points="754.32 407.21 779 597.08 785.67 597.08 770 400.99 754.32 407.21" fill="#463548"/><polygon points="697.99 465.67 569.69 465.67 569.69 448.87 689.43 448.87 686.71 320.45 695.6 320.45 697.99 465.67" fill="#463548"/><path d="M614.11,410.2,597.87,450l-15.18,8.51C573.48,462.45,573,470,573,470l1.15,94.82a44.75,44.75,0,0,1-11.59,3.46c-15.88,2.73-33.75-.47-33.75-.47C527.45,569,523.77,470,523.77,470c-2.53-46.26,22.55-48.79,22.55-48.79l25.15-11.05Z" fill="#f7cf5f"/><path d="M614.11,410.2,597.87,450l-15.18,8.51C573.48,462.45,573,470,573,470l1.15,94.82a44.75,44.75,0,0,1-11.59,3.46c-15.88,2.73-33.75-.47-33.75-.47C527.45,569,523.77,470,523.77,470c-2.53-46.26,22.55-48.79,22.55-48.79l25.15-11.05Z" fill="#fff" opacity="0.4"/><path d="M614.11,410.2,597.87,450l-15.18,8.51C573.48,462.45,573,470,573,470l1.15,94.82a44.75,44.75,0,0,1-11.59,3.46l-3.14-101a19.27,19.27,0,0,1,7.6-17l21.4-21.87s17-11.73,17-18.18Z" fill="#fff" opacity="0.4"/><path d="M735,348.55c-.33-2-.62-3.25-.62-3.25L721,311.7c-10.58-29.69-38-31.62-38-31.62H653.8l-25.55,2c-2.53-.31-4.9-.47-7.1-.53-15.88-.44-23.51,4.61-23.51,4.61-25.31,17-24.68,93-24.68,93h60.88l3.27-14.29v14.29h10a4,4,0,0,0,1.44,3c2,1.62,5.22,1.39,5.22,1.39h73.88C738.29,376.19,736.24,356.38,735,348.55Zm-50.78,3.2c1.84-9.9,5.25-22.05,5.25-22.05-.74,4,5.11,23.89,5.11,23.89Z" fill="#5c75c9"/><path d="M694.54,353.59l16.11,3.68S689,322.89,684.18,295.08c0,0-4.69,9.59,5.25,34.62A104.18,104.18,0,0,0,694.54,353.59Z" opacity="0.2"/><path d="M644.13,360.94s-6.44,1.12-7,3.9h-3.27s-.44-5.27,8.49-7.57c0,0-.52-11.51,15.49-14.15,0,0,13.24-.81,19.46,2.18,0,0,9.11-7.72,12.15-15.6l-5.25,22.05S647.13,341.13,644.13,360.94Z" opacity="0.2"/><path d="M727.68,383.51H653.8s-3.26.23-5.22-1.39c0,0,57.69-1.61,70.81-11.27A52.62,52.62,0,0,0,735,348.55C736.24,356.38,738.29,376.19,727.68,383.51Z" opacity="0.2"/><rect x="741.49" y="464.52" width="83.54" height="83.54" rx="17.03" fill="#5c75c9"/><path d="M648.58,379.13v4.38H526l-11.62-61.28a3,3,0,0,1,2.91-3.52l77.25-.1H597a3,3,0,0,1,2.93,2.22l16.21,58.3Z" fill="#f7cf5f"/><path d="M637.11,364.84H635a6.39,6.39,0,0,1-2.25-.4c-3.94-1.48-17.52-6.29-18.9-3.14l-1.72,3.54,1.46,5.27,2.35-1.44a1.35,1.35,0,0,1,1.85.42h0a1.36,1.36,0,0,1-.29,1.78l-3,2.42,1.62,5.84h5.66l4.75-3.33a21,21,0,0,0,10.58,3.33Z" fill="#f5b6b4"/><path d="M599.91,320.83s.42-8.78,3.62-11.89a110.37,110.37,0,0,0,.8,27.78Z" opacity="0.2"/><path d="M616.12,379.13h-4l-17.57-60.52H597a3,3,0,0,1,2.93,2.22Z" opacity="0.2"/><ellipse cx="560.94" cy="351.63" rx="8.75" ry="11.28" fill="#fff" opacity="0.4"/><rect x="429.18" y="395.93" width="349.82" height="14.27" fill="#d9b288"/><rect x="416.06" y="383.51" width="377.67" height="12.43" fill="#463548"/><path d="M663.52,280.08C659.25,299,641,298.47,641,298.47c-16.15,1.71-19.29-11.26-19.89-16.93,2.2.06,4.57.22,7.1.53l25.55-2Z" fill="#fff"/><path d="M628.25,269.12V279a14.09,14.09,0,0,0,2.82,8.56c2.19,2.86,5.93,5.4,12.14,4.14,0,0,11.28-1.38,10.59-13.69l-1.56-28.66Z" fill="#f5b6b4"/><path d="M628.25,269.12V279s13.82-2.21,15.77-14.32Z" fill="#f1888a"/><path d="M652.24,249.33l.75,13.79s6.28-3.53,7.11-9.46Z" fill="#463548"/><path d="M621,229l-2.56,28.37A13.77,13.77,0,0,0,625,270.52c3.87,2.3,9.08,3.16,15-1.64a23,23,0,0,0,6.72-9.14c2.15-5.22,5.91-15.1,7-22.84l-26.44-17.26Z" fill="#f5b6b4"/><path d="M649,247.72h12c13.14-22.09-3.84-22.09-3.84-22.09C660.64,213,638.38,216,638.38,216s-24.86-13.58-25.89,3.68c0,0-1.91,10.9,5.89,14.54a14.26,14.26,0,0,0,12.18-5.33s1.15,12.89,14,6.67c0,0,1.33,10.95,4.38,12.2" fill="#463548"/><ellipse cx="637.11" cy="247.72" rx="7.02" ry="8.06" fill="none" stroke="#fff" stroke-miterlimit="10"/><ellipse cx="621.11" cy="245.72" rx="7.02" ry="8.06" fill="none" stroke="#fff" stroke-miterlimit="10"/><path d="M602.94,572.46s26.36,5.29,45.51,0l-4-100.89a9,9,0,0,1,1-4.4,25.47,25.47,0,0,1,8.42-9.1s32.42-23.47,27.37-47.87H614.11a211.57,211.57,0,0,1-12.32,18.18s-7.46,6.22-6.61,43.5Z" fill="#f7cf5f"/><path d="M602.94,572.46s26.36,5.29,45.51,0l-4-100.89a9,9,0,0,1,1-4.4,25.47,25.47,0,0,1,8.42-9.1s32.42-23.47,27.37-47.87H614.11a211.57,211.57,0,0,1-12.32,18.18s-7.46,6.22-6.61,43.5Z" fill="#fff" opacity="0.4"/><path d="M452.76,175.92a15.33,15.33,0,0,1,5.87-5.87,16.61,16.61,0,0,1,8.35-2.11,16.41,16.41,0,0,1,9.48,2.78,14.55,14.55,0,0,1,5.69,7.67H474.7a7.78,7.78,0,0,0-3.12-3.47,9.16,9.16,0,0,0-4.65-1.15,9.57,9.57,0,0,0-5,1.32,9.06,9.06,0,0,0-3.42,3.72,13.6,13.6,0,0,0,0,11.26,9,9,0,0,0,3.42,3.75,9.57,9.57,0,0,0,5,1.32,9.08,9.08,0,0,0,4.65-1.18,7.86,7.86,0,0,0,3.12-3.5h7.45a14.41,14.41,0,0,1-5.67,7.7,17.66,17.66,0,0,1-17.85.65,15.34,15.34,0,0,1-5.87-5.85,18,18,0,0,1,0-17Z" fill="#fff"/><path d="M513.74,187H505v9h-6.1v-9h-8.74v-5.65h8.74v-9H505v9h8.75Z" fill="#fff"/><path d="M546.76,187H538v9h-6.11v-9h-8.74v-5.65h8.74v-9H538v9h8.74Z" fill="#fff"/><path d="M750.52,499.9a11.4,11.4,0,0,1,4.41-4.41,13.21,13.21,0,0,1,13.38.5,10.87,10.87,0,0,1,4.27,5.77H767a5.8,5.8,0,0,0-2.34-2.61,7,7,0,0,0-3.49-.86,7.19,7.19,0,0,0-3.77,1,6.81,6.81,0,0,0-2.57,2.79,10.16,10.16,0,0,0,0,8.45,6.76,6.76,0,0,0,2.57,2.82,7.19,7.19,0,0,0,3.77,1,6.78,6.78,0,0,0,3.49-.89,5.88,5.88,0,0,0,2.34-2.62h5.59a10.85,10.85,0,0,1-4.25,5.78,12.39,12.39,0,0,1-7.14,2.07,12.52,12.52,0,0,1-6.26-1.58,11.55,11.55,0,0,1-4.41-4.39,13.45,13.45,0,0,1,0-12.8Z" fill="#fff"/><path d="M781.94,517.83a7.34,7.34,0,0,1-3.21-2.5,6.52,6.52,0,0,1-1.22-3.85h5.21a3.35,3.35,0,0,0,1.06,2.36,3.75,3.75,0,0,0,2.62.87,4,4,0,0,0,2.67-.82,2.64,2.64,0,0,0,1-2.13,2.46,2.46,0,0,0-.66-1.77,4.6,4.6,0,0,0-1.65-1.1A28,28,0,0,0,785,508a31.18,31.18,0,0,1-3.84-1.37,6.9,6.9,0,0,1-2.53-2.05,5.84,5.84,0,0,1-1.06-3.67,6.56,6.56,0,0,1,1.08-3.75,6.75,6.75,0,0,1,3-2.44,10.92,10.92,0,0,1,4.44-.85,9.65,9.65,0,0,1,6.1,1.82,6.74,6.74,0,0,1,2.58,5.09h-5.34a2.78,2.78,0,0,0-1.06-2.07,4,4,0,0,0-2.62-.82,3.43,3.43,0,0,0-2.28.73,2.64,2.64,0,0,0-.85,2.12,2.19,2.19,0,0,0,.64,1.62,5.09,5.09,0,0,0,1.6,1c.64.26,1.53.57,2.69.92a26.84,26.84,0,0,1,3.85,1.39A6.75,6.75,0,0,1,794,507.8a5.78,5.78,0,0,1,1.08,3.65,6.88,6.88,0,0,1-1,3.61,7.07,7.07,0,0,1-3,2.65,10,10,0,0,1-4.62,1A11.44,11.44,0,0,1,781.94,517.83Z" fill="#fff"/><path d="M804.47,517.83a7.45,7.45,0,0,1-3.21-2.5,6.51,6.51,0,0,1-1.21-3.85h5.2a3.39,3.39,0,0,0,1.06,2.36,3.75,3.75,0,0,0,2.62.87,4,4,0,0,0,2.68-.82,2.63,2.63,0,0,0,1-2.13,2.46,2.46,0,0,0-.66-1.77,4.6,4.6,0,0,0-1.65-1.1c-.66-.26-1.57-.56-2.72-.88a30,30,0,0,1-3.84-1.37,6.85,6.85,0,0,1-2.54-2.05,5.9,5.9,0,0,1-1.06-3.67,6.56,6.56,0,0,1,1.08-3.75,6.86,6.86,0,0,1,3-2.44,11,11,0,0,1,4.45-.85,9.6,9.6,0,0,1,6.09,1.82,6.79,6.79,0,0,1,2.59,5.09H812a2.78,2.78,0,0,0-1.06-2.07,4,4,0,0,0-2.62-.82,3.43,3.43,0,0,0-2.28.73,2.68,2.68,0,0,0-.85,2.12,2.2,2.2,0,0,0,.65,1.62,5,5,0,0,0,1.59,1c.64.26,1.54.57,2.69.92a27,27,0,0,1,3.86,1.39,6.91,6.91,0,0,1,2.57,2.08,5.84,5.84,0,0,1,1.07,3.65,6.87,6.87,0,0,1-1,3.61,7.13,7.13,0,0,1-3,2.65,10.09,10.09,0,0,1-4.62,1A11.53,11.53,0,0,1,804.47,517.83Z" fill="#fff"/><path d="M280.64,195.7h-.21l-10.13-7.2v-2.07l10.34-7.22v4.22l-6,4,6,4Z" fill="#fff"/><path d="M298.73,172.22l-10.77,27h-3.72V199L295,172h3.71Z" fill="#fff"/><path d="M312.73,188.5l-10.15,7.2h-.24v-4.2l6-4-6-4v-4.22h.24l10.15,7.22Z" fill="#fff"/><path d="M70.44,357.35v32.29H64V375.9H50.14v13.74H43.66V357.35h6.48v13.28H64V357.35Z" fill="#fff"/><path d="M100.64,357.35v5.23H92v27.06H85.57V362.58H77v-5.23Z" fill="#fff"/><path d="M142.4,357.35v32.29h-6.47v-21l-8.65,21h-4.9l-8.7-21v21h-6.47V357.35h7.35l10.27,24,10.27-24Z" fill="#fff"/><path d="M157.11,384.5h10.64v5.14H150.64V357.35h6.47Z" fill="#fff"/><line x1="628.13" y1="245.72" x2="630.32" y2="245.72" fill="none" stroke="#fff" stroke-miterlimit="10"/><line x1="644.13" y1="247.72" x2="653.8" y2="244.72" fill="none" stroke="#fff" stroke-miterlimit="10"/><circle cx="655.64" cy="249.33" r="6.21" fill="#f5b6b4"/><path d="M746.37,304.85a.4.4,0,0,1,.08-.2l.28-.52a22.63,22.63,0,0,1,1.22-1.94A21,21,0,0,1,754,296.4a15.28,15.28,0,0,1,5.5-2,13.76,13.76,0,0,1,6.67.71,10.86,10.86,0,0,1,5.82,4.74c1.31,2.29,1.73,5,2.5,7.55a13.51,13.51,0,0,0,1.6,3.65,11.09,11.09,0,0,0,2.71,2.67c1,.76,2.08,1.43,3.06,2.22a14.52,14.52,0,0,1,2.44,2.69,16.59,16.59,0,0,1,2.53,6.22,21.59,21.59,0,0,1,.34,5.84,44.4,44.4,0,0,1-1.49,8.32c-.25,1-.47,1.7-.62,2.2a5.15,5.15,0,0,1-.24.76,4.9,4.9,0,0,1,.16-.78l.52-2.23a46.57,46.57,0,0,0,1.35-8.28,23.08,23.08,0,0,0-.39-5.75,16.48,16.48,0,0,0-2.52-6.09,13.27,13.27,0,0,0-2.43-2.59c-.95-.76-2-1.43-3.06-2.2a11.15,11.15,0,0,1-2.8-2.85,13.72,13.72,0,0,1-1.66-3.73c-.78-2.62-1.22-5.27-2.44-7.46a10.47,10.47,0,0,0-5.46-4.5,13.22,13.22,0,0,0-6.47-.72,15.25,15.25,0,0,0-5.39,1.91,21.62,21.62,0,0,0-6.09,5.62c-.59.79-1,1.44-1.3,1.88C746.72,304.41,746.55,304.63,746.37,304.85Z" fill="#fff"/><path d="M780,314.27c-.71-.65-1-.2-2,0a6.07,6.07,0,0,0-2.57,1.29,10.79,10.79,0,0,0-3.51,11.36,8.45,8.45,0,0,0,7.75-12.7" fill="#fff"/><path d="M750.91,301.05c-.36-.91-.86-.64-1.8-.89a5.81,5.81,0,0,0-2.87,0,10.84,10.84,0,0,0-8.06,8.74,8.44,8.44,0,0,0,12.46-8.11" fill="#fff"/><path d="M786.39,332.18a9.74,9.74,0,0,0-13.74-1,10.15,10.15,0,0,0-1.59,1.75,12.07,12.07,0,0,0,8,3.13,12.37,12.37,0,0,0,8-3.24" fill="#fff"/><path d="M784,318.8a9.87,9.87,0,0,0,10.13-9.61A10,10,0,0,0,794,307a8.88,8.88,0,0,0-10.31,11.7" fill="#fff"/><path d="M773.77,303.08a9.89,9.89,0,0,0,13.33-7.81,8.88,8.88,0,0,0-13.61,7.6" fill="#fff"/><path d="M770.34,297.94A9.9,9.9,0,0,0,757,305.75a8.88,8.88,0,0,0,13.62-7.6" fill="#fff"/><path d="M766.25,295.17a9.87,9.87,0,0,0,6.19-12.52,9.75,9.75,0,0,0-.93-2,8.87,8.87,0,0,0-7.61,10,9,9,0,0,0,2,4.58" fill="#fff"/><path d="M755.77,295.67A9.88,9.88,0,0,0,749.84,283a10.07,10.07,0,0,0-2.17-.51,8.88,8.88,0,0,0,7.87,13.4" fill="#fff"/><polyline points="798.03 368.61 803.6 331.48 760.82 332.03 765.03 368.13" fill="#463548"/><path d="M779.56,325.08a7.29,7.29,0,0,1-7.11.59,7.67,7.67,0,0,1-3.89-6.09,8.83,8.83,0,0,1,7.1-.36,8.69,8.69,0,0,1,4.72,5.28" fill="#47ae8c"/><path d="M760,332.63a7.32,7.32,0,0,1-7.1.6,7.69,7.69,0,0,1-3.89-6.09,8.2,8.2,0,0,1,11.14,3.27,7.71,7.71,0,0,1,.66,1.6" fill="#47ae8c"/><path d="M771,315.77a7.3,7.3,0,0,1-5.6,4.41,7.71,7.71,0,0,1-6.63-3,8.78,8.78,0,0,1,5.73-4.2,8.61,8.61,0,0,1,6.84,1.82" fill="#47ae8c"/><path d="M763.84,324.5a7.32,7.32,0,0,1,6.38,3.16,7.68,7.68,0,0,1,.14,7.31,8.71,8.71,0,0,1-6.24-3.36,8.52,8.52,0,0,1-1.31-7" fill="#47ae8c"/><path d="M756.94,338.29a7.3,7.3,0,0,1-.17,7.13,7.7,7.7,0,0,1-6.53,3.2,8.77,8.77,0,0,1,.4-7.09c1.14-2,3.16-3,5.7-3.65" fill="#47ae8c"/><path d="M745.57,339.92a4.93,4.93,0,0,1,1.69-1.08,7,7,0,0,1,2.31-.4,27.94,27.94,0,0,1,3.17.18,9.1,9.1,0,0,0,3.88-.33,6,6,0,0,0,3.23-3.14,17.45,17.45,0,0,0,1.39-4.74,13.85,13.85,0,0,1,1.65-4.87,17.54,17.54,0,0,1,3.65-3.65,17.23,17.23,0,0,0,3.47-3.51,11.6,11.6,0,0,0,1.72-8.05,11.35,11.35,0,0,0-2.13-5.17,8.47,8.47,0,0,0-1-1.12,2.23,2.23,0,0,0-.4-.35,2.25,2.25,0,0,0,.34.41,11,11,0,0,1,2.88,6.29,11.4,11.4,0,0,1-1.78,7.77,18.05,18.05,0,0,1-3.41,3.41,17.55,17.55,0,0,0-3.72,3.78,13.91,13.91,0,0,0-1.7,5,17.66,17.66,0,0,1-1.32,4.63,5.57,5.57,0,0,1-3,2.94,9.11,9.11,0,0,1-3.74.36,28.26,28.26,0,0,0-3.19-.12,7.12,7.12,0,0,0-2.37.5,3.8,3.8,0,0,0-1.28.84,2.44,2.44,0,0,0-.27.29C745.58,339.88,745.55,339.91,745.57,339.92Z" fill="#ff725e"/><path d="M745.57,339.92a4.93,4.93,0,0,1,1.69-1.08,7,7,0,0,1,2.31-.4,27.94,27.94,0,0,1,3.17.18,9.1,9.1,0,0,0,3.88-.33,6,6,0,0,0,3.23-3.14,17.45,17.45,0,0,0,1.39-4.74,13.85,13.85,0,0,1,1.65-4.87,17.54,17.54,0,0,1,3.65-3.65,17.23,17.23,0,0,0,3.47-3.51,11.6,11.6,0,0,0,1.72-8.05,11.35,11.35,0,0,0-2.13-5.17,8.47,8.47,0,0,0-1-1.12,2.23,2.23,0,0,0-.4-.35,2.25,2.25,0,0,0,.34.41,11,11,0,0,1,2.88,6.29,11.4,11.4,0,0,1-1.78,7.77,18.05,18.05,0,0,1-3.41,3.41,17.55,17.55,0,0,0-3.72,3.78,13.91,13.91,0,0,0-1.7,5,17.66,17.66,0,0,1-1.32,4.63,5.57,5.57,0,0,1-3,2.94,9.11,9.11,0,0,1-3.74.36,28.26,28.26,0,0,0-3.19-.12,7.12,7.12,0,0,0-2.37.5,3.8,3.8,0,0,0-1.28.84,2.44,2.44,0,0,0-.27.29C745.58,339.88,745.55,339.91,745.57,339.92Z" fill="#463548"/><path d="M827.26,343.51a10.83,10.83,0,0,1,10.3-11.34,10.72,10.72,0,0,1,4.31.68,18.06,18.06,0,0,1-14.26,10.53" fill="#47ae8c"/><path d="M830.08,345c2.1,2.31,2,6,.47,8.73a19.79,19.79,0,0,1-6.67,6.39,14.13,14.13,0,0,1,6.09-16" fill="#47ae8c"/><path d="M820,334.22a12.49,12.49,0,0,1-13.67,11.2l-.53-.06c.81-3.36,2.15-6.76,4.76-9s6.7-3.13,9.57-1.22" fill="#47ae8c"/><path d="M820,330.79c.52-3.06,3.55-5.27,6.64-5.57a12.85,12.85,0,0,1,8.64,2.9,11.22,11.22,0,0,1-15.3,1.51" fill="#47ae8c"/><path d="M836,356.84c2.93,2.51,3.65,7,2.43,10.65a17.76,17.76,0,0,1-7.31,8.73,23.33,23.33,0,0,1-1.36-11.31,11.89,11.89,0,0,1,6.44-9" fill="#47ae8c"/><path d="M820.49,322.2a9,9,0,0,0-14.35-.84,7.8,7.8,0,0,0,14.08.37" fill="#47ae8c"/><path d="M816.89,313.37a11.73,11.73,0,0,0,14.64-7.8,10.92,10.92,0,0,0,.33-1.37,26.57,26.57,0,0,0-7.07.1,11.44,11.44,0,0,0-6.26,3.08,6.21,6.21,0,0,0-1.64,6" fill="#47ae8c"/><path d="M810.1,311.09a9.59,9.59,0,0,0,1.35-13.5,10,10,0,0,0-1.29-1.31,20.12,20.12,0,0,0-4.19,9,7.28,7.28,0,0,0,0,3.65,3.47,3.47,0,0,0,2.59,2.44" fill="#47ae8c"/><path d="M798.35,332.6a.49.49,0,0,0,0-.24v-.71c0-.6-.09-1.52-.12-2.7a24.17,24.17,0,0,1,1.6-9.74,14.73,14.73,0,0,1,3.87-5.48,10.41,10.41,0,0,1,7.11-2.62,8.77,8.77,0,0,1,4,1,7.88,7.88,0,0,1,3.1,3,15.87,15.87,0,0,1,1.8,8.94,64.13,64.13,0,0,0-.21,9.4,14.68,14.68,0,0,0,1.22,4.36,9.18,9.18,0,0,0,2.58,3.46,13.65,13.65,0,0,0,3.66,1.88,19.06,19.06,0,0,1,3.52,1.56,12.46,12.46,0,0,1,4.53,4.94,11.87,11.87,0,0,1,1.31,5.42,12.67,12.67,0,0,1-.68,4.18,15.9,15.9,0,0,1-1.62,3.25l.16-.18c.09-.14.24-.32.42-.57a12.57,12.57,0,0,0,2-6.68,12,12,0,0,0-1.28-5.57,12.83,12.83,0,0,0-4.61-5.11c-2.12-1.41-4.88-1.77-7.07-3.46a11,11,0,0,1-3.65-7.53,64.72,64.72,0,0,1,.22-9.34,16.45,16.45,0,0,0-1.89-9.2,8.52,8.52,0,0,0-3.28-3.11,9.36,9.36,0,0,0-4.21-1,10.84,10.84,0,0,0-7.38,2.75,15.2,15.2,0,0,0-4,5.67,20.12,20.12,0,0,0-1.35,5.55A32.62,32.62,0,0,0,798,329a22.59,22.59,0,0,0,.21,2.71,3.65,3.65,0,0,0,.1.7Z" fill="#463548"/><g opacity="0.4"><path d="M827.26,343.51a10.83,10.83,0,0,1,10.3-11.34,10.72,10.72,0,0,1,4.31.68,18.06,18.06,0,0,1-14.26,10.53"/></g><g opacity="0.4"><path d="M830.08,345c2.1,2.31,2,6,.47,8.73a19.79,19.79,0,0,1-6.67,6.39,14.13,14.13,0,0,1,6.09-16"/></g><g opacity="0.4"><path d="M820,334.22a12.49,12.49,0,0,1-13.67,11.2l-.53-.06c.81-3.36,2.15-6.76,4.76-9s6.7-3.13,9.57-1.22"/></g><g opacity="0.4"><path d="M820,330.79c.52-3.06,3.55-5.27,6.64-5.57a12.85,12.85,0,0,1,8.64,2.9,11.22,11.22,0,0,1-15.3,1.51"/></g><g opacity="0.4"><path d="M836,356.84c2.93,2.51,3.65,7,2.43,10.65a17.76,17.76,0,0,1-7.31,8.73,23.33,23.33,0,0,1-1.36-11.31,11.89,11.89,0,0,1,6.44-9"/></g><g opacity="0.4"><path d="M820.49,322.2a9,9,0,0,0-14.35-.84,7.8,7.8,0,0,0,14.08.37"/></g><g opacity="0.4"><path d="M816.89,313.37a11.73,11.73,0,0,0,14.64-7.8,10.92,10.92,0,0,0,.33-1.37,26.57,26.57,0,0,0-7.07.1,11.44,11.44,0,0,0-6.26,3.08,6.21,6.21,0,0,0-1.64,6"/></g><g opacity="0.4"><path d="M810.1,311.09a9.59,9.59,0,0,0,1.35-13.5,10,10,0,0,0-1.29-1.31,20.12,20.12,0,0,0-4.19,9,7.28,7.28,0,0,0,0,3.65,3.47,3.47,0,0,0,2.59,2.44"/></g><g opacity="0.3"><path d="M798.35,332.6a.49.49,0,0,0,0-.24v-.71c0-.6-.09-1.52-.12-2.7a24.17,24.17,0,0,1,1.6-9.74,14.73,14.73,0,0,1,3.87-5.48,10.41,10.41,0,0,1,7.11-2.62,8.77,8.77,0,0,1,4,1,7.88,7.88,0,0,1,3.1,3,15.87,15.87,0,0,1,1.8,8.94,64.13,64.13,0,0,0-.21,9.4,14.68,14.68,0,0,0,1.22,4.36,9.18,9.18,0,0,0,2.58,3.46,13.65,13.65,0,0,0,3.66,1.88,19.06,19.06,0,0,1,3.52,1.56,12.46,12.46,0,0,1,4.53,4.94,11.87,11.87,0,0,1,1.31,5.42,12.67,12.67,0,0,1-.68,4.18,15.9,15.9,0,0,1-1.62,3.25l.16-.18c.09-.14.24-.32.42-.57a12.57,12.57,0,0,0,2-6.68,12,12,0,0,0-1.28-5.57,12.83,12.83,0,0,0-4.61-5.11c-2.12-1.41-4.88-1.77-7.07-3.46a11,11,0,0,1-3.65-7.53,64.72,64.72,0,0,1,.22-9.34,16.45,16.45,0,0,0-1.89-9.2,8.52,8.52,0,0,0-3.28-3.11,9.36,9.36,0,0,0-4.21-1,10.84,10.84,0,0,0-7.38,2.75,15.2,15.2,0,0,0-4,5.67,20.12,20.12,0,0,0-1.35,5.55A32.62,32.62,0,0,0,798,329a22.59,22.59,0,0,0,.21,2.71,3.65,3.65,0,0,0,.1.7Z"/></g><path d="M736.05,325a8.89,8.89,0,0,1-.64-3.14,7.62,7.62,0,0,1,.84-3.65,7.72,7.72,0,0,1,6.23-4.12,9.08,9.08,0,0,1,3.07.37c2.11.55,4.18,1.74,6.65,2.23a7.76,7.76,0,0,0,3.86-.1,5.77,5.77,0,0,0,3.15-2.51c1.5-2.31,1.91-5.22,3.72-7.31a7.45,7.45,0,0,1,3.38-2.21,9.75,9.75,0,0,1,3.94-.41,10.14,10.14,0,0,1,6.58,3.43,15.33,15.33,0,0,1,3.25,6,17.8,17.8,0,0,1,.73,6,62.7,62.7,0,0,1-1.1,8.74q-.26,1.5-.42,2.37l-.08.62v.22l.06-.21a2.92,2.92,0,0,1,.13-.61c.12-.58.28-1.36.5-2.35a58.93,58.93,0,0,0,1.22-8.77,18.18,18.18,0,0,0-.68-6.09,15.82,15.82,0,0,0-3.32-6.22,11.73,11.73,0,0,0-3-2.44,10.33,10.33,0,0,0-8-.77,7.73,7.73,0,0,0-3.58,2.35c-1.92,2.29-2.33,5.22-3.75,7.42a5.41,5.41,0,0,1-2.9,2.34,7.68,7.68,0,0,1-3.66.1c-2.43-.47-4.47-1.64-6.62-2.2a9.16,9.16,0,0,0-3.21-.34,7.78,7.78,0,0,0-7.23,8.09,7.87,7.87,0,0,0,.46,2.44A4.24,4.24,0,0,0,736.05,325Z" fill="#463548"/><path d="M761.07,309.43a8.26,8.26,0,0,1-7.62.49,7.67,7.67,0,0,1-3.89-6.09,8.76,8.76,0,0,1,7.09-.35,8.59,8.59,0,0,1,4.71,5.28" fill="#47ae8c"/><path d="M753,316.78a8.34,8.34,0,0,1-3.53,6.79,7.73,7.73,0,0,1-7.31.12,8.13,8.13,0,0,1,10.34-7.47" fill="#47ae8c"/><path d="M738.89,315.15a8.31,8.31,0,0,1-7.65-.3,7.79,7.79,0,0,1-3.2-6.5,8.77,8.77,0,0,1,7.09.41,8.63,8.63,0,0,1,4.13,5.68" fill="#47ae8c"/><path d="M772.9,304.55a8.7,8.7,0,0,0,3-7.16,7.66,7.66,0,0,0-4.71-5.53,8.2,8.2,0,0,0-.14,11.61,8,8,0,0,0,1.35,1.12" fill="#47ae8c"/><path d="M827.86,294.48a1.11,1.11,0,0,0-.09-.19c-.07-.14-.17-.31-.28-.53-.27-.45-.67-1.12-1.22-1.94a21.11,21.11,0,0,0-6.09-5.78,14.93,14.93,0,0,0-5.52-2.05,13.53,13.53,0,0,0-6.67.7,10.83,10.83,0,0,0-5.71,4.67c-1.32,2.29-1.73,5-2.5,7.56a13.65,13.65,0,0,1-1.6,3.65,10.91,10.91,0,0,1-2.71,2.67c-1,.75-2.08,1.44-3.06,2.23a13.29,13.29,0,0,0-2.44,2.69,16.5,16.5,0,0,0-2.54,6.21,22.07,22.07,0,0,0-.34,5.85,44.88,44.88,0,0,0,1.5,8.3c.25,1,.46,1.71.6,2.21a6.22,6.22,0,0,0,.26.77,4.36,4.36,0,0,0-.16-.8c-.13-.54-.3-1.29-.53-2.22a48.4,48.4,0,0,1-1.34-8.29,21.35,21.35,0,0,1,.39-5.75,16.49,16.49,0,0,1,2.49-6.09,13,13,0,0,1,2.44-2.59c1-.77,2-1.44,3-2.21a11.29,11.29,0,0,0,2.83-2.77,14.18,14.18,0,0,0,1.66-3.73c.78-2.62,1.21-5.26,2.43-7.45a10.36,10.36,0,0,1,5.46-4.51,13.24,13.24,0,0,1,6.48-.72A14.56,14.56,0,0,1,820,286.3a21.09,21.09,0,0,1,6.15,5.6c.6.79,1,1.44,1.31,1.87A4.9,4.9,0,0,0,827.86,294.48Z" fill="#463548"/><path d="M794.24,303.91c.7-.66,1-.21,2,0a5.8,5.8,0,0,1,2.59,1.25,10.84,10.84,0,0,1,3.51,11.37,8.45,8.45,0,0,1-7.76-12.7" fill="#47ae8c"/><path d="M823.31,290.67c.36-.9.87-.64,1.8-.89a5.81,5.81,0,0,1,2.87,0,10.84,10.84,0,0,1,8.06,8.83,8.44,8.44,0,0,1-12.46-8.12" fill="#47ae8c"/><path d="M787.87,321.82a9.74,9.74,0,0,1,13.74-1,9.32,9.32,0,0,1,1.58,1.74,12.05,12.05,0,0,1-8,3.13,12.25,12.25,0,0,1-8-3.24" fill="#47ae8c"/><path d="M790.22,308.44a9.89,9.89,0,0,1-10-11.79,8.88,8.88,0,0,1,10.64,6.64,9,9,0,0,1-.32,5.06" fill="#47ae8c"/><path d="M800.45,292.71A9.88,9.88,0,0,1,787.68,287a10.44,10.44,0,0,1-.56-2.13,8.86,8.86,0,0,1,13.61,7.61" fill="#47ae8c"/><path d="M803.88,287.57a9.89,9.89,0,0,1,13.33,7.81,8.87,8.87,0,0,1-13.61-7.6" fill="#47ae8c"/><path d="M746.26,286.52A9.9,9.9,0,0,1,741,272a8.87,8.87,0,0,1,5.6,14.55" fill="#47ae8c"/><path d="M756.74,287a9.87,9.87,0,0,1,5.92-12.65,10,10,0,0,1,2.15-.51,8.86,8.86,0,0,1-7.88,13.39" fill="#47ae8c"/><polygon points="804.15 364.31 800.88 368.61 760.6 368.61 757.86 364.31 804.15 364.31" fill="#463548"/><polygon points="804.15 364.31 800.88 368.61 760.6 368.61 757.86 364.31 804.15 364.31" opacity="0.2"/><path d="M763.26,347.14a1.35,1.35,0,0,0,.26.32,7.48,7.48,0,0,0,.82.87,14.78,14.78,0,0,0,3.65,2.5,15.43,15.43,0,0,0,10.13,1.29,24.42,24.42,0,0,0,3.93-1.29,71.34,71.34,0,0,1,7.24-3.11,12.55,12.55,0,0,1,6.28-.6,8.19,8.19,0,0,1,3.83,1.78,12,12,0,0,1,1.1,1.15,1.2,1.2,0,0,0-.2-.37,5.21,5.21,0,0,0-.78-.91,8,8,0,0,0-3.89-2,12.65,12.65,0,0,0-6.54.54c-2.37.72-4.75,2-7.31,3.07a23.74,23.74,0,0,1-3.84,1.29,15.15,15.15,0,0,1-3.74.34,16,16,0,0,1-6.16-1.48A19.46,19.46,0,0,1,763.26,347.14Z" fill="#fff"/><path d="M762.87,344a2.73,2.73,0,0,0,.27.32,11.28,11.28,0,0,0,.89.8,16.74,16.74,0,0,0,3.73,2.32,17.68,17.68,0,0,0,6.32,1.51,17.22,17.22,0,0,0,3.86-.26,25.84,25.84,0,0,0,4-1.13c2.66-1,5.09-2.07,7.43-2.73a14.86,14.86,0,0,1,6.32-.57,9.58,9.58,0,0,1,4,1.52,12.52,12.52,0,0,1,1.22,1,1.7,1.7,0,0,0-.26-.34,6.69,6.69,0,0,0-.88-.8,9,9,0,0,0-4-1.71,14.56,14.56,0,0,0-6.49.49c-2.38.63-4.87,1.74-7.47,2.69a25.29,25.29,0,0,1-3.91,1.12,16.84,16.84,0,0,1-3.75.28,18,18,0,0,1-6.22-1.39A21.37,21.37,0,0,1,762.87,344Z" fill="#fff"/><rect x="741.15" y="328.62" width="8.06" height="55.21" fill="#5c75c9"/><path d="M748.23,336.18a17.85,17.85,0,0,1-6.91,0A16.76,16.76,0,0,1,748.23,336.18Z" fill="#fafafa"/><path d="M748.38,335a17.11,17.11,0,0,1-6.91,0A17.47,17.47,0,0,1,748.38,335Z" fill="#fafafa"/><path d="M744.62,371.16c-.19,0-.35-6.32-.35-14.12s.16-14.13.35-14.13.35,6.32.35,14.13S744.82,371.16,744.62,371.16Z" fill="#fafafa"/><rect x="749.12" y="368.81" width="55.93" height="14.75" fill="#e35c5c"/><path d="M804.44,380.11a1.69,1.69,0,0,1-.29.17l-.9.42a15.08,15.08,0,0,1-3.66,1.07,9.25,9.25,0,0,1-5.92-.81,7.79,7.79,0,0,1-2.81-2.6,6.1,6.1,0,0,1-1-4.25,4.6,4.6,0,0,1,1-2.2,2.82,2.82,0,0,1,2.28-1.06,3.35,3.35,0,0,1,2.29,1.22,4.61,4.61,0,0,1,1,2.52,6.75,6.75,0,0,1-1.85,5.23,8.15,8.15,0,0,1-5.19,2.59,13.32,13.32,0,0,1-6-.76,11,11,0,0,1-5.27-3.66,5.93,5.93,0,0,1-1.21-3.18,4.2,4.2,0,0,1,1.14-3.31,2.59,2.59,0,0,1,1.69-.76,3,3,0,0,1,1.72.48,4.77,4.77,0,0,1,2,3,7.06,7.06,0,0,1-2.12,6.5,10.41,10.41,0,0,1-6.09,2.53,14.74,14.74,0,0,1-6.29-.63,8.75,8.75,0,0,1-4.78-3.82,6.6,6.6,0,0,1-.6-5.86,3,3,0,0,1,2.19-1.91,3.49,3.49,0,0,1,2.72.67,4.68,4.68,0,0,1,1.28,5,8.36,8.36,0,0,1-2.72,3.92,12,12,0,0,1-7.39,2.95,11.54,11.54,0,0,1-5.85-1.36,11.73,11.73,0,0,1-3.06-2.32c-.29-.33-.51-.58-.64-.76a2,2,0,0,1-.2-.3,14,14,0,0,0,4,3.13,11.56,11.56,0,0,0,5.72,1.22,11.79,11.79,0,0,0,7.11-2.92,8.2,8.2,0,0,0,2.52-3.66,4.14,4.14,0,0,0-1.12-4.36,2.88,2.88,0,0,0-2.27-.54,2.42,2.42,0,0,0-1.77,1.57,6.08,6.08,0,0,0,.6,5.28,8.07,8.07,0,0,0,4.46,3.51,14,14,0,0,0,6,.59,9.8,9.8,0,0,0,5.69-2.37,6.35,6.35,0,0,0,1.93-5.82,4.2,4.2,0,0,0-1.68-2.55,2,2,0,0,0-2.63.16,3.45,3.45,0,0,0-.94,2.77,5.27,5.27,0,0,0,1.08,2.82,10.41,10.41,0,0,0,4.93,3.4,13,13,0,0,0,5.73.76,7.55,7.55,0,0,0,4.87-2.44,6.15,6.15,0,0,0,1.73-4.75,3.48,3.48,0,0,0-2.79-3.3,2.26,2.26,0,0,0-1.87.86,4,4,0,0,0-.89,1.94,5.75,5.75,0,0,0,.86,3.92,7.76,7.76,0,0,0,2.64,2.52,9.15,9.15,0,0,0,5.72.93,16.44,16.44,0,0,0,3.65-.93A10.93,10.93,0,0,1,804.44,380.11Z" fill="#fafafa"/><rect x="715.98" y="333.33" width="25.22" height="50.39" fill="#e35c5c"/><path d="M740.2,341.68a198.74,198.74,0,0,1-23.24,0,193.07,193.07,0,0,1,23.24,0Z" fill="#e0e0e0"/><path d="M740,345.48a186.65,186.65,0,0,1-22.85,0,192.13,192.13,0,0,1,22.85,0Z" fill="#e0e0e0"/><path d="M740.35,373.44a198.08,198.08,0,0,1-23.54,0,198.08,198.08,0,0,1,23.54,0Z" fill="#e0e0e0"/></svg>